# xmcd
#
# Track frame offsets:
#	150
#	12075
#	28105
#	42650
#	59447
#	72497
#	91002
#	103240
#	117967
#	129065
#	140802
#	156500
#	172412
#	186160
#	201467
#	214257
#	229352
#	243755
#
# Disc length: 3540 seconds
#
# Revision: 4
# Processed by: cddbd v1.5.2PL0 Copyright (c) Steve Scherf et al.
# Submitted via: EasyCDDAExtractor 10.5.1.1
#
DISCID=150dd212
DTITLE=Various Artist - Kool Country Rock
DYEAR=1900
DGENRE=Country
TTITLE0=Joe Diffy - C.O.U.N.T.R.Y.
TTITLE1=mark chestnutt - Wrong Place, Wrong Time
TTITLE2=Sawyer Brown - Some Girls Do
TTITLE3=Hank Williams Jr - Iron Horse
TTITLE4=james bonamy - Dog on a Toolbox
TTITLE5=Trish Yearwod - She's in love with the boy
TTITLE6=Clint Black - Hey Hot Rod
TTITLE7=Wynonna Judd - Girls With Guitars
TTITLE8=Jeff Carson - Yeah Buddy
TTITLE9=mark chestnutt - Going Through the Big D
TTITLE10=Sawyer Brown - This thing called
TTITLE11=Hank Williams Jr. - Hog Wild
TTITLE12=Lorrie Morgan - 1-800 Used To Be
TTITLE13=James House - A Real Good Way To Wind Up Lonesome
TTITLE14=Jeff Carson - If I Ain't Got You
TTITLE15=Carlene Carter - Love Like This
TTITLE16=Ricky Van Shelton - Where was I
TTITLE17=David Allen Coe - If That Ain't Country
EXTD=
EXTT0=
EXTT1=
EXTT2=
EXTT3=
EXTT4=
EXTT5=
EXTT6=
EXTT7=
EXTT8=
EXTT9=
EXTT10=
EXTT11=
EXTT12=
EXTT13=
EXTT14=
EXTT15=
EXTT16=
EXTT17=
PLAYORDER=
